HIERARCHY
ROOT Hips
{
	OFFSET 0.000000 0.000000 0.000000
	CHANNELS 6 Xposition Yposition Zposition Zrotation Yrotation Xrotation 
	JOINT LHipJoint
	{
		OFFSET 0.000000 0.000000 0.000000
		CHANNELS 3 Zrotation Yrotation Xrotation
		JOINT LeftUpLeg
		{
			OFFSET 1.363060 -1.794630 0.839290
			CHANNELS 3 Zrotation Yrotation Xrotation
			JOINT LeftLeg
			{
				OFFSET 2.448110 -6.726130 0.000000
				CHANNELS 3 Zrotation Yrotation Xrotation
				JOINT LeftFoot
				{
					OFFSET 2.562200 -7.039590 0.000000
					CHANNELS 3 Zrotation Yrotation Xrotation
					JOINT LeftToeBase
					{
						OFFSET 0.157640 -0.433110 2.322550
						CHANNELS 3 Zrotation Yrotation Xrotation
						End Site
						{
							OFFSET 0.000000 0.000000 0.000000
						}
					}
				}
			}
		}
	}
	JOINT RHipJoint
	{
		OFFSET 0.000000 0.000000 0.000000
		CHANNELS 3 Zrotation Yrotation Xrotation
		JOINT RightUpLeg
		{
			OFFSET -1.305520 -1.794630 0.839290
			CHANNELS 3 Zrotation Yrotation Xrotation
			JOINT RightLeg
			{
				OFFSET -2.542530 -6.985550 0.000000
				CHANNELS 3 Zrotation Yrotation Xrotation
				JOINT RightFoot
				{
					OFFSET -2.568260 -7.056230 0.000000
					CHANNELS 3 Zrotation Yrotation Xrotation
					JOINT RightToeBase
					{
						OFFSET -0.164730 -0.452590 2.363150
						CHANNELS 3 Zrotation Yrotation Xrotation
						End Site
						{
							OFFSET 0.000000 0.000000 0.000000
						}
					}
				}
			}
		}
	}
	JOINT LowerBack
	{
		OFFSET 0.000000 0.000000 0.000000
		CHANNELS 3 Zrotation Yrotation Xrotation
		JOINT Spine
		{
			OFFSET 0.028270 2.035590 -0.193380
			CHANNELS 3 Zrotation Yrotation Xrotation
			JOINT Spine1
			{
				OFFSET 0.056720 2.048850 -0.042750
				CHANNELS 3 Zrotation Yrotation Xrotation
				JOINT Neck
				{
					OFFSET 0.000000 0.000000 0.000000
					CHANNELS 3 Zrotation Yrotation Xrotation
					JOINT Neck1
					{
						OFFSET -0.054170 1.746240 0.172020
						CHANNELS 3 Zrotation Yrotation Xrotation
						JOINT Head
						{
							OFFSET 0.104070 1.761360 -0.123970
							CHANNELS 3 Zrotation Yrotation Xrotation
							End Site
							{
								OFFSET 0.000000 0.000000 0.000000
							}
						}
					}
				}
				JOINT LeftShoulder
				{
					OFFSET 0.000000 0.000000 0.000000
					CHANNELS 3 Zrotation Yrotation Xrotation
					JOINT LeftArm
					{
						OFFSET 3.362410 1.200890 -0.311210
						CHANNELS 3 Zrotation Yrotation Xrotation
						JOINT LeftForeArm
						{
							OFFSET 4.983000 -0.000000 -0.000000
							CHANNELS 3 Zrotation Yrotation Xrotation
							JOINT LeftHand
							{
								OFFSET 3.483560 -0.000000 -0.000000
								CHANNELS 3 Zrotation Yrotation Xrotation
								JOINT LeftFingerBase
								{
									OFFSET 0.000000 0.000000 0.000000
									CHANNELS 3 Zrotation Yrotation Xrotation
									JOINT LeftHandIndex1
									{
										OFFSET 0.715260 -0.000000 -0.000000
										CHANNELS 3 Zrotation Yrotation Xrotation
										End Site
										{
											OFFSET 0.000000 0.000000 0.000000
										}
									}
								}
								JOINT LThumb
								{
									OFFSET 0.000000 0.000000 0.000000
									CHANNELS 3 Zrotation Yrotation Xrotation
									End Site
									{
										OFFSET 0.000000 0.000000 0.000000
									}
								}
							}
						}
					}
				}
				JOINT RightShoulder
				{
					OFFSET 0.000000 0.000000 0.000000
					CHANNELS 3 Zrotation Yrotation Xrotation
					JOINT RightArm
					{
						OFFSET -3.136600 1.374050 -0.404650
						CHANNELS 3 Zrotation Yrotation Xrotation
						JOINT RightForeArm
						{
							OFFSET -5.241900 -0.000000 -0.000000
							CHANNELS 3 Zrotation Yrotation Xrotation
							JOINT RightHand
							{
								OFFSET -3.444170 -0.000000 -0.000000
								CHANNELS 3 Zrotation Yrotation Xrotation
								JOINT RightFingerBase
								{
									OFFSET 0.000000 0.000000 0.000000
									CHANNELS 3 Zrotation Yrotation Xrotation
									JOINT RightHandIndex1
									{
										OFFSET -0.622530 -0.000000 -0.000000
										CHANNELS 3 Zrotation Yrotation Xrotation
										End Site
										{
											OFFSET 0.000000 0.000000 0.000000
										}
									}
								}
								JOINT RThumb
								{
									OFFSET 0.000000 0.000000 0.000000
									CHANNELS 3 Zrotation Yrotation Xrotation
									End Site
									{
										OFFSET 0.000000 0.000000 0.000000
									}
								}
							}
						}
					}
				}
			}
		}
	}
}
MOTION
Frames: 5
Frame Time: 0.008333
5.765476 15.388986 1.759043 75.392339 -85.895778 -35.656634 -11.223105 -2.799451 -2.571041 -11.888514 -2.363207 -63.191641 1.426846 5.077612 82.682398 3.885883 18.443962 -24.091443 -4.890400 0.000000 -5.281900 7.724966 -0.056291 -3.030549 19.460324 -5.448073 -72.924358 2.795165 -7.024690 65.703645 -1.143954 5.364377 -31.058136 -0.426300 -0.000000 -7.999800 9.782379 0.184078 8.505823 1.823332 0.284737 -0.835791 -3.431907 0.173434 0.438271 5.823623 -7.108009 -6.169489 -1.648821 -0.112654 -0.164314 0.000000 0.000000 0.000000 2.111605 12.288436 2.626265 -72.536538 20.201202 24.868835 -0.977687 -61.895243 0.006365 -4.413008 6.996379 -0.269793 0.025471 0.039960 -0.000000 0.000000 0.000000 0.000000 0.000000 0.000000 0.000000 4.402394 -2.391691 -0.254833 60.080965 13.472207 3.001047 0.297665 79.822161 -0.050953 -9.677666 2.966461 -0.286714 0.176831 -0.366230 0.000000 0.000000 0.000000 0.000000 0.000000 0.000000 0.000000 
5.641521 15.412926 1.737934 75.117099 -85.943758 -35.161166 -10.968421 -2.932846 -2.374619 -11.887357 -3.182792 -65.173466 1.370716 5.113940 82.259274 3.912698 18.070230 -24.680879 -4.969000 0.000000 -5.430900 7.783279 -0.038664 -3.200539 19.597712 -5.798652 -72.355552 2.885813 -6.998701 65.362918 -1.104127 5.627341 -31.117001 -0.517400 0.000001 -8.896400 9.480371 0.257434 8.535695 1.766208 0.366704 -0.823324 -3.382065 0.257603 0.440617 5.752576 -7.098239 -6.142276 -1.602594 -0.109469 -0.159568 0.000000 0.000000 0.000000 2.091348 12.459128 2.623856 -72.354357 20.743443 24.977774 -0.965559 -62.289544 0.006536 -4.502341 7.033203 -0.276909 0.027751 0.037970 -0.000000 0.000000 0.000000 0.000000 0.000000 0.000000 0.000000 4.147442 -2.334188 -0.272367 59.488657 13.940313 3.122601 0.278292 80.513966 -0.052317 -9.825435 2.949885 -0.290012 0.180927 -0.369738 0.000000 0.000000 0.000000 0.000000 0.000000 0.000000 0.000000 
5.516063 15.436359 1.717630 74.768071 -85.996710 -34.584937 -10.704185 -3.050149 -2.165096 -11.871616 -3.990232 -67.166266 1.304262 5.139680 81.682154 3.952845 17.758227 -25.176252 -5.026100 -0.000000 -5.683200 7.842407 -0.023868 -3.362557 19.730864 -6.134409 -71.795926 2.972224 -6.970682 65.020726 -1.065270 5.870039 -31.145322 -0.602500 0.000000 -9.856400 9.175867 0.325881 8.542727 1.707524 0.442614 -0.817201 -3.336576 0.335934 0.443795 5.686996 -7.105569 -6.127452 -1.558579 -0.106313 -0.157658 0.000000 0.000000 0.000000 2.063658 12.635107 2.621159 -72.161320 21.272511 25.091638 -0.953321 -62.710390 0.006689 -4.582223 7.072721 -0.283623 0.029880 0.036073 -0.000000 0.000000 0.000000 0.000000 0.000000 0.000000 0.000000 3.908544 -2.294832 -0.286633 58.888243 14.383420 3.236589 0.258702 81.219747 -0.053714 -9.974787 2.911145 -0.291310 0.185249 -0.372904 0.000000 0.000000 0.000000 0.000000 0.000000 0.000000 0.000000 
5.388992 15.459009 1.697988 74.407070 -86.051418 -33.993287 -10.434333 -3.148025 -1.945412 -11.855848 -4.774685 -69.156612 1.228288 5.155146 80.948913 4.007272 17.518733 -25.558215 -5.060200 -0.000000 -6.172200 7.900916 -0.012801 -3.516474 19.856302 -6.457314 -71.239192 3.053618 -6.939775 64.676375 -1.027192 6.090278 -31.139123 -0.680200 0.000000 -10.997800 8.864075 0.388680 8.529300 1.646192 0.511816 -0.818580 -3.295147 0.407820 0.441888 5.623894 -7.118584 -6.118804 -1.516081 -0.103225 -0.156724 0.000000 0.000000 0.000000 2.025118 12.790439 2.618083 -71.962226 21.821537 25.180693 -0.940327 -63.174407 0.006845 -4.656129 7.113729 -0.290037 0.031984 0.034267 -0.000000 0.000000 0.000000 0.000000 0.000000 0.000000 0.000000 3.675871 -2.261901 -0.296711 58.296103 14.785584 3.339655 0.238892 81.935162 -0.055136 -10.124293 2.858107 -0.291208 0.189726 -0.375864 0.000000 0.000000 0.000000 0.000000 0.000000 0.000000 0.000000 
5.260196 15.480767 1.679150 74.014237 -86.112613 -33.373541 -10.161608 -3.223703 -1.720188 -11.850588 -5.521250 -71.128709 1.139834 5.161961 80.062215 4.076881 17.344334 -25.871554 -5.086300 0.000000 -6.500500 7.957610 -0.007517 -3.663373 19.980442 -6.767030 -70.674723 3.132414 -6.905593 64.329611 -0.992399 6.291530 -31.127357 -0.751699 0.000000 -12.110300 8.550164 0.446346 8.500393 1.583457 0.575166 -0.824837 -3.257615 0.474009 0.440211 5.564892 -7.143463 -6.121309 -1.475277 -0.100133 -0.158335 0.000000 0.000000 0.000000 1.983373 12.953702 2.615006 -71.756068 22.357434 25.280201 -0.927277 -63.660289 0.006983 -4.720104 7.148105 -0.295650 0.033919 0.032630 -0.000000 0.000000 0.000000 0.000000 0.000000 0.000000 0.000000 3.453643 -2.241430 -0.304646 57.710060 15.157662 3.435195 0.218749 82.660889 -0.056548 -10.266486 2.780065 -0.288506 0.194229 -0.378421 0.000000 0.000000 0.000000 0.000000 0.000000 0.000000 0.000000 
